<?xml version="1.0" encoding="UTF-8"?>
<svg id="Layer_1" data-name="Layer 1" xmlns="http://www.w3.org/2000/svg" viewBox="0 0 1080 1080">
  <defs>
    <style>
      .cls-1 {
        fill: #bedc44;
      }

      .cls-2 {
        fill: #ec8d16;
      }
    </style>
  </defs>
  <rect class="cls-1" x="-43.81" y="-24.53" width="1164.21" height="1164.21"/>
  <g>
    <path class="cls-2" d="M959.23,500.2c-2.26-13.9-9.79-19.4-23.29-21.84l-73.46-13.3c-29.01-5.25-40.53-60.67-36.07-68.53l44.82-79.01c5.91-10.42,6.72-25.12-2.39-34.91-29.63-31.84-59.17-62.65-94.04-89.95-5.48-3.23-17.85,6.16-22.63,9.99-40.56,32.5-106.16,65.76-114.5,27.9l-24.55-111.36c-49.29-10.87-99-9.04-148-6.05-11.69,44.51-2.6,97.35-41.12,128.36-17.25,13.89-78.19-40.56-112.15-64.78-9.58-6.83-20.38,2.01-27.9,8.47-28.39,24.39-87.43,80.34-86.45,95.49.36,5.52,6.01,8.47,9.63,13.39l37.42,50.89c7.96,10.83-22.9,40.31-28.8,78.74-32.07,8.42-63.89-3.1-87.57,5.72-13.63,53.18-16.73,108.19-8.13,162.71l117.01,28.18c12.9,3.11,26.86,30.66,22.07,42.13-18.37,44.05-74.42,92.46-57.6,111.78,34.03,39.08,74.37,70.25,115.2,102.25,39.38-18.81,74.15-62.5,112.64-61.89,18.34.29,28.46,24.4,31.42,39.45l21.22,108.03c43.21,9.93,85.99,7.68,131.35,3.61,8.56-.77,28.29,2.59,32.02-8.77,9.56-29.13,4.94-58.58,8.52-87.16,2.55-20.34,26.63-32.08,45.4-25.98,37.43,12.15,67.42,33.07,98.98,57.87,34.68-28.06,114.3-84.51,101.35-110.28-27.93-55.6-66.6-80.26-43.78-106.31,12.37-14.13,21.91-34.68,37.88-45.23,19.59-12.95,68.84,4.65,69.89-18.11,1.87-40.92,2.17-81.27-4.37-121.51ZM784.18,710.13c-47.33,70.7-132.6,108.71-218.43,101.79-80.26-6.47-145.44-40.29-199.67-94.2-64.27-63.89-99.19-147.14-92.08-239.6,10.73-139.39,140.06-228.2,277.38-212.84,131.29,14.68,235.5,110.15,264.7,238.02,16.25,71.17,9.43,145.1-31.89,206.83Z"/>
    <path d="M776.51,486.76c-63.15-165.21-264.86-246.13-392.11-148.8-50.67,38.75-76.57,100-74.55,165.23,4.2,135.07,103.09,251.81,234.49,278.87,88.2,18.16,175.35-14.37,220.37-93.55,36.2-63.67,37.22-135.26,11.8-201.74ZM681.82,639.14c-5.79,31.22-32.23,52.45-67.22,48.21-73.1-8.85-139.26-95.63-175.3-158.5-15.32-26.73-18.54-58.74-12.09-88.41,7.12-32.74,37.33-51.51,70-45.41,62.37,11.64,139.88,103.28,171.75,163.22,13.4,25.21,18,53.22,12.86,80.89Z"/>
  </g>
</svg>