<?xml version="1.0" encoding="UTF-8"?>
<svg id="Layer_1" data-name="Layer 1" xmlns="http://www.w3.org/2000/svg" viewBox="0 0 1080 1080">
  <defs>
    <style>
      .cls-1 {
        fill: #010101;
      }

      .cls-2 {
        fill: #428a36;
      }

      .cls-3 {
        fill: #438a37;
      }

      .cls-4 {
        fill: #438a36;
      }

      .cls-5 {
        fill: #ec8d16;
      }
    </style>
  </defs>
  <g>
    <path class="cls-5" d="M716.4,392.89c-.95-5.85-4.12-8.16-9.8-9.19l-30.91-5.59c-12.21-2.21-17.05-25.53-15.18-28.83l18.86-33.24c2.49-4.38,2.83-10.57-1.01-14.69-12.47-13.4-24.9-26.36-39.57-37.85-2.31-1.36-7.51,2.59-9.52,4.2-17.07,13.68-44.67,27.67-48.18,11.74l-10.33-46.86c-20.74-4.57-41.66-3.81-62.27-2.54-4.92,18.73-1.09,40.96-17.3,54.01-7.26,5.84-32.9-17.07-47.19-27.26-4.03-2.88-8.57.84-11.74,3.57-11.95,10.26-36.79,33.81-36.37,40.18.15,2.32,2.53,3.56,4.05,5.64l15.74,21.41c3.35,4.55-9.63,16.96-12.12,33.13-13.49,3.54-26.88-1.31-36.85,2.4-5.74,22.38-7.04,45.52-3.42,68.46l49.23,11.86c5.43,1.31,11.3,12.9,9.29,17.73-7.73,18.53-31.31,38.9-24.23,47.03,14.32,16.44,31.29,29.56,48.47,43.02,16.57-7.91,31.2-26.3,47.4-26.04,7.71.12,11.98,10.27,13.22,16.6l8.93,45.45c18.18,4.18,36.18,3.23,55.27,1.52,3.6-.32,11.9,1.09,13.47-3.69,4.02-12.26,2.08-24.65,3.58-36.67,1.07-8.56,11.2-13.5,19.1-10.93,15.75,5.11,28.37,13.91,41.65,24.35,14.59-11.81,48.09-35.56,42.64-46.4-11.75-23.39-28.02-33.77-18.42-44.73,5.21-5.95,9.22-14.59,15.94-19.03,8.24-5.45,28.97,1.96,29.41-7.62.79-17.22.91-34.2-1.84-51.13ZM642.74,481.22c-19.91,29.75-55.79,45.74-91.91,42.83-33.77-2.72-61.2-16.95-84.01-39.64-27.04-26.88-41.74-61.91-38.74-100.81,4.51-58.65,58.93-96.02,116.71-89.56,55.24,6.18,99.09,46.34,111.37,100.15,6.84,29.94,3.97,61.05-13.42,87.03Z"/>
    <path d="M639.51,387.24c-26.57-69.51-111.44-103.56-164.99-62.61-21.32,16.3-32.22,42.08-31.37,69.52,1.77,56.83,43.38,105.95,98.66,117.34,37.11,7.64,73.78-6.05,92.72-39.36,15.23-26.79,15.66-56.91,4.97-84.89ZM599.67,451.35c-2.44,13.14-13.56,22.07-28.28,20.29-30.76-3.72-58.6-40.24-73.76-66.69-6.45-11.25-7.8-24.71-5.09-37.2,3-13.78,15.71-21.67,29.45-19.11,26.24,4.9,58.86,43.46,72.26,68.68,5.64,10.61,7.57,22.39,5.41,34.03Z"/>
  </g>
  <g>
    <polygon class="cls-4" points="761.76 763.85 739.89 764.12 699.83 707.96 699.98 764.11 675.71 764.25 675.69 666.62 697.9 666.6 736.99 721.43 737.37 666.67 761.76 666.6 761.76 763.85"/>
    <path d="M203.16,727.47l-24.61-.06.06-19.4h48.74c2.24,24.88-6.69,48.87-30.79,55.66-11.4,3.21-23.47,2.85-34.7-1.13-29.77-10.55-38.65-48.87-23.57-74.9,14.81-25.55,53.05-29.26,73.65-12.45,5.38,4.39,9.53,9.56,11.71,16.35l-23.56,6.19c-2.1-3.94-4.69-6.46-8.33-8.3-12.73-6.42-27.9-1.09-33.41,12.35-3.83,9.35-3.57,20.27,1.17,29.14,5.04,9.41,14.58,13.89,24.9,12.88,9.22-.9,16.74-6.63,18.76-16.33Z"/>
    <path class="cls-2" d="M855.36,666.53l.13,58.05c.04,17.66-7.87,33.23-24.68,38.74-10.26,3.36-20.93,3.57-31.41.64-15.01-4.19-25.49-16.86-26.36-32.96l-.46-64.44,24.06.15.19,61.3c1.26,10.12,8.34,16.29,18.33,15.64,8.48-.55,15.78-6.62,15.82-15.87l.28-61.06,24.11-.18Z"/>
    <polygon class="cls-1" points="566.37 742.96 566.64 764.13 502.07 764.17 502.04 666.63 526.2 666.48 526.24 742.92 566.37 742.96"/>
    <polygon points="493.22 742.99 493.38 764.15 428.73 764.13 428.72 666.62 453.12 666.6 453.07 742.97 493.22 742.99"/>
    <path d="M369.4,664.71c-27.97,0-50.64,22.67-50.64,50.64s22.67,50.64,50.64,50.64,50.64-22.67,50.64-50.64-22.67-50.64-50.64-50.64ZM390.14,731.93c-4.26,7.03-11,11.16-18.1,11.77-7.88.67-15.62-2.07-20.91-8.42-8.95-10.72-9.34-26.65-1.51-38.23,5.39-7.97,14.53-11.31,23.71-9.99,8.71,1.26,15.98,7.4,19.22,16.36,3.33,9.21,2.88,19.76-2.41,28.51Z"/>
    <path d="M294.73,725.74c9.56-3.86,15.34-11.9,17.15-21.6,2.13-11.42-1.42-22.84-10.14-30.48-6.51-4.65-13.97-7-22.14-7.02l-42.65-.08-.05,97.5,24.51.07.15-34.25c3.4-.39,6.18-.53,9.05.29l19.31,33.83,27.32-.12-22.51-38.14ZM277.64,709.54l-16.04.36-.14-22.76h14.77c6.39,0,11.28,4.09,11.65,9.97.37,6.05-3.16,12.27-10.24,12.43Z"/>
    <path class="cls-2" d="M924.03,725.93c17.9-7.88,22.13-28.51,13.05-45.33-5.55-8.25-14.3-13.51-24.63-13.61l-45.7-.42-.03,97.57h24.27s0-33.95,0-33.95c2.76-.89,5.62-.71,8.66-.22l19.43,33.73c8.66.43,17.54.38,26.25.02.09,0,.17-.3.24-.67l-21.55-37.13ZM917.07,699.55c-.37,4.75-4.45,10.03-10.36,10.1l-15.66.18.12-22.65,17.76.44c5.87.15,8.56,6.4,8.13,11.93Z"/>
    <path class="cls-3" d="M1009.48,666.61l-26.7-.03-34.63,93.46c-.62,1.66-.9,2.97-2.58,3.01l-26.49.65c.22.38,1.22.81,1.98.8l51.36-.25,5.72-16.89,36.03.06,5.83,16.72,26.47-.09-36.99-97.45ZM984.84,727.22l11.3-33.47,11.06,33.21-22.36.26Z"/>
    <path d="M96.72,666.53l-26.8.18-36.4,97.35,26.1.07,5.57-16.73,35.73-.08,6.05,16.81,26.64-.05-36.9-97.56ZM71.94,727.28l11.24-33.55,11.27,33.4-22.51.15Z"/>
    <path class="cls-3" d="M632.86,666.6l-26.69.06-36.3,97.43,25.79.11,5.71-16.8,35.91-.03,5.93,16.75,26.5-.1-36.86-97.43ZM608.04,727.16l11.47-33.5,11.05,33.26-22.52.24Z"/>
  </g>
</svg>